<svg xmlns="http://www.w3.org/2000/svg" viewBox="0 0 200 200" style="fill:#09f" width="32" height="32"><path d="m62 117c-2 8 0 14 1 18a61 61 0 0013 23 68 68 0 0024 17 74 74 0 0030 6 75 75 0 0030-6 69 69 0 0024-17 62 62 0 0013-23 58 58 0 002-26 59 59 0 00-9-23 64 64 0 00-15-17l-62-48c-4-3-11-3-16 0-4 4-5 9-1 12l26 21-79 0c-7 0-13 5-14 10-2 6 3 10 10 10l40 0-72 55c-7 6-9 14-5 20 5 5 14 5 21 0l39-32zm100 21c-8 8-20 13-32 13-12 0-23-5-32-13-3-4-6-8-8-13a36 36 0 012-30 39 39 0 0110-11 45 45 0 0128-10 45 45 0 0128 10 39 39 0 0110 11 36 36 0 014 14 35 35 0 01-2 16 38 38 0 01-8 13zm-58-28a24 24 0 019-17 28 28 0 0118-6 29 29 0 0118 6 24 24 0 019 17c0 7-3 13-7 18a28 28 0 01-20 8c-8 0-15-3-20-8a23 23 0 01-7-18z"/></svg>